<?xml version="1.0" encoding="UTF-8" standalone="no"?>
<!-- Created with Inkscape (http://www.inkscape.org/) -->

<svg
   width="210mm"
   height="297mm"
   viewBox="0 0 210 297"
   version="1.1"
   id="svg1"
   sodipodi:docname="drawing.svg"
   inkscape:version="1.3 (0e150ed, 2023-07-21)"
   inkscape:export-filename="Desktop/drawing.png"
   inkscape:export-xdpi="96"
   inkscape:export-ydpi="96"
   xmlns:inkscape="http://www.inkscape.org/namespaces/inkscape"
   xmlns:sodipodi="http://sodipodi.sourceforge.net/DTD/sodipodi-0.dtd"
   xmlns="http://www.w3.org/2000/svg"
   xmlns:svg="http://www.w3.org/2000/svg">
  <sodipodi:namedview
     id="namedview1"
     pagecolor="#ffffff"
     bordercolor="#000000"
     borderopacity="0.25"
     inkscape:showpageshadow="2"
     inkscape:pageopacity="0.0"
     inkscape:pagecheckerboard="0"
     inkscape:deskcolor="#d1d1d1"
     inkscape:document-units="mm"
     inkscape:zoom="0.5946522"
     inkscape:cx="508.70072"
     inkscape:cy="659.20886"
     inkscape:window-width="1920"
     inkscape:window-height="877"
     inkscape:window-x="0"
     inkscape:window-y="25"
     inkscape:window-maximized="0"
     inkscape:current-layer="layer1" />
  <defs
     id="defs1" />
  <g
     inkscape:label="Layer 1"
     inkscape:groupmode="layer"
     id="layer1">
    <path
       style="fill:#d4471c;fill-opacity:1;stroke-width:0.264583"
       d="m 105.45029,118.79844 0.44494,-48.498243 c 0,0 40.04441,-32.035532 44.49379,3.114564 4.44938,35.150109 -44.93873,45.383679 -44.93873,45.383679 z"
       id="path1" />
    <path
       style="fill:#d4471c;fill-opacity:1;fill-rule:nonzero;stroke-width:0.264583"
       d="m 105.73383,118.79844 -0.44494,-48.498239 c 0,0 -40.044408,-32.03554 -44.493788,3.11456 -4.44938,35.150109 44.938728,45.383679 44.938728,45.383679 z"
       id="path2" />
    <text
       xml:space="preserve"
       style="font-style:normal;font-variant:normal;font-weight:normal;font-stretch:normal;font-size:34.3615px;font-family:Futura;-inkscape-font-specification:Futura;text-align:center;text-anchor:middle;fill:#d4471c;fill-opacity:1;fill-rule:nonzero;stroke-width:0.357932"
       x="106.81857"
       y="180.0683"
       id="text27"
       transform="scale(0.97886733,1.0215889)"><tspan
         sodipodi:role="line"
         style="font-style:normal;font-variant:normal;font-weight:normal;font-stretch:normal;font-size:34.3615px;font-family:Futura;-inkscape-font-specification:Futura;text-align:center;text-anchor:middle;stroke-width:0.357932"
         x="106.81857"
         y="180.0683"
         id="tspan29">Kun Tarvitset</tspan><tspan
         sodipodi:role="line"
         style="font-style:normal;font-variant:normal;font-weight:normal;font-stretch:normal;font-size:34.3615px;font-family:Futura;-inkscape-font-specification:Futura;text-align:center;text-anchor:middle;stroke-width:0.357932"
         x="106.81857"
         y="223.02017"
         id="tspan30">Apua.</tspan></text>
    <path
       style="fill:#d4471c;fill-opacity:1;fill-rule:nonzero;stroke-width:0.227456"
       id="path31"
       d="m 41.686401,253.43876 c 1.545739,-1.45717 3.394101,-2.55664 5.301612,-3.55519 3.222023,-1.64351 6.75773,-2.57644 10.301987,-3.39915 4.201923,-0.89359 8.495436,-1.22433 12.789409,-1.42721 4.491097,-0.16225 8.986647,-0.15485 13.480365,-0.15821 4.550851,0.006 9.101706,0.008 13.652561,0.0103 4.851355,-2.2e-4 9.702715,-0.001 14.554075,0.002 4.21519,-0.086 8.42884,-0.21912 12.6443,-0.29638 4.04969,-0.0582 8.09995,-0.0603 12.15002,-0.0598 3.78282,0.001 7.56561,0.007 11.34839,-0.0123 4.09078,-0.0122 8.1816,-0.008 12.27237,0.006 0,0 -2.71577,-1.83196 -2.71577,-1.83196 v 0 c -4.08581,0.0135 -8.17168,0.0174 -12.25749,0.004 -3.79561,-0.0198 -7.59124,-0.0197 -11.38689,-0.0131 -4.04476,0.0102 -8.08964,0.0221 -12.13404,0.077 -4.20735,0.0624 -8.41113,0.23141 -12.61815,0.30713 -4.85219,0.004 -9.704385,0.001 -14.556579,-0.004 -4.553074,-0.004 -9.106139,-0.0146 -13.659216,-0.0141 -4.497627,0.001 -8.996996,-6.6e-4 -13.491727,0.17019 -4.314758,0.21095 -8.629542,0.55609 -12.849966,1.46181 -3.574261,0.83789 -7.136616,1.79695 -10.391954,3.4448 -1.943499,1.01867 -3.824469,2.13509 -5.442222,3.57644 z" />
    <path
       style="fill:#d4471c;fill-opacity:1;fill-rule:nonzero;stroke-width:0.181733"
       id="path32"
       d="m 56.443868,260.55777 c 1.126871,-1.27598 2.47436,-2.23874 3.86497,-3.11313 2.348913,-1.43915 4.926506,-2.25608 7.510333,-2.97649 3.063277,-0.78248 6.193325,-1.07209 9.323708,-1.24975 3.27409,-0.14207 6.551427,-0.13559 9.827428,-0.13853 3.317652,0.005 6.635307,0.007 9.952961,0.009 3.536732,-1.9e-4 7.073452,-8.7e-4 10.610182,0.002 3.07295,-0.0753 6.14478,-0.19188 9.21792,-0.25953 2.9523,-0.051 5.90501,-0.0528 8.85758,-0.0524 2.75775,8.8e-4 5.51547,0.006 8.27318,-0.0108 2.98226,-0.0107 5.96454,-0.007 8.94678,0.005 0,0 -1.97984,-1.60417 -1.97984,-1.60417 v 0 c -2.97863,0.0118 -5.9573,0.0152 -8.93593,0.004 -2.76707,-0.0173 -5.53415,-0.0172 -8.30125,-0.0115 -2.9487,0.009 -5.89749,0.0194 -8.84593,0.0674 -3.06724,0.0547 -6.13187,0.20264 -9.19886,0.26895 -3.53734,0.004 -7.07467,8.7e-4 -10.612008,-0.004 -3.319272,-0.004 -6.638538,-0.0128 -9.957813,-0.0123 -3.278851,8.7e-4 -6.558971,-5.8e-4 -9.835711,0.14902 -3.145536,0.18472 -6.29109,0.48695 -9.367855,1.28005 -2.6057,0.7337 -5.202721,1.57351 -7.575921,3.01646 -1.416845,0.89201 -2.788106,1.86961 -3.967477,3.13174 z" />
  </g>
</svg>
